/* XPM */
static char *team_logo_xpm[] = {
/* columns rows colors chars-per-pixel */
"184 32 6 1",
"  c #696969",
". c #8D8D8D",
"X c #B1B1B1",
"o c #C9C9C9",
"O c #FDFDFD",
"+ c None",
/* pixels */
"                                                     oO+++++++++++++++++++++++++++++++++++++++++++++++++++++++++++++++++++++++++++++++++++++++++++++++++++++++++++++++++++++++++++++++++",
"        . .                +              ...         oO+++++++++++++++++++++++++++OOooooooO+++++++++++OooooooO+++++++++++++++++++++++++++++++++++++++++++++++++++++++++++++++++++++++++",
"     .XOOOOOX                          XoOOOOX.        oO++++++++++++++++++++++++++OX     .O+++++++++++O      o+++++++++++++++++++++++++++++++++++++++++++++++++++++++++++++++++++++++++",
"    .OOOOOOOOO.                       OOOOOOOOOX       .oO++++++++++++++++++++++++++X      o+++++++++++o      o+++++++++++++++++++++++++++++++++++++++++++++++++++++++++++++++++++++++++",
"   XOOOOOOOOOOO.                    .oOOOOOOOOOOX       .o++++++++++++++++++++++++++o      XO+++++++++OX      o+++++++++++++OOOOOO+++OOOOOOOOOOOOOOOOOOOOOO++++++OOOOOOOO+++++++++++++++",
"   oOOOOOOOOOOOo                    oOOOOOOOOOOOO        .O+++++++++++++++++++++++++O      .O+++++++++o.      O+++++++++++++OOOOOO+++OOOOOOOOOOOOOOOOOOOOOO++++++OOOOOOOO+++++++++++++++",
"  XOOOOOOOOOOOOO                    OOOOOOOOOOOOO.        .O++++++++++++++++++++++++O       XO+++++++OX      .O+++++++++++++OOOOOO+++OOOOOOOOOOOOOOOOOOOOOO++++++OOOOOOOO+++++++++++++++",
"  oOOOOOOOOOOOOOX                  XOOOOOOOOOOOOOo         XO+++++++++++++++++++++++OX       oO+++++Oo.      XO+++++++++++++OOOOOO+++OOOOOOOOOOOOOOOOOOOOOO+++++OOOOOOOOOO++++++++++++++",
"  oOOOOOOOOOOOOO.        +         XOOOOOOOOOOOOOo          o++++++++++++++++++++++++o       .XOO+OO.        o++++++++++++++OOOOOO+++++++++++OOOOOO+++++++++++++OOOOOOOOOO++++++++++++++",
"  oOOOOOOOOOOOOOX                  XOOOOOOOOOOOOOO.         .O+++++++++++++++++++++++O.         XXX         .O++++++++++++++OOOOOO+++++++++++OOOOOO++++++++++++OOOOOOOOOOOO+++++++++++++",
"  oOOOOOOOOOOOOOX                  .OOOOOOOOOOOOOo           XO++++++++++++++++++++++OX                     o+++++++++++++++OOOOOO+++++++++++OOOOOO++++++++++++OOOOOOOOOOOO+++++++++++++",
"  XOOOOOOOOOOOOO.                   OOOOOOOOOOOOOX           .O+++++++++++++++++++++++O.                   .O+++++++++++++++OOOOOO+++++++++++OOOOOO++++++++++++OOOOOOOOOOOO+++++++++++++",
"   oOOOOOOOOOOOo           +        oOOOOOOOOOOOO             XO+++++++++++++++++++++++o                  .o++++++++++++++++OOOOOO+++++++++++OOOOOO+++++++++++OOOOOOOOOOOOOO++++++++++++",
"   .OOOOOOOOOOO.                    .oOOOOOOOOOOX        +     O+++++++++++++++++++++++OX                 XO++++++++++++++++OOOOOO+++++++++++OOOOOO+++++++++++OOOOOO++OOOOOO++++++++++++",
"    .OOOOOOOOo.                      .oOOOOOOOOX               XO+++++++++++++++++++++++OX               XO+++++++++++++++++OOOOOO+++++++++++OOOOOO+++++++++++OOOOOO++OOOOOO++++++++++++",
"     .XoOOOoX.                         XoOOOOo.                 O++++++++++++++++++++++++OX             XO++++++++++++++++++OOOOOO+++++++++++OOOOOO++++++++++OOOOOOO++OOOOOOO+++++++++++",
"        .X.                              ...                    o++++++++++++++++++++++++Ooo.         .oO+++++++++++++++++++OOOOOO+++++++++++OOOOOO++++++++++OOOOOO++++OOOOOO+++++++++++",
"                                                                XO+++++++++++++++++++++++o..ooX. ...XooXo+++++++++++++++++++OOOOOO+++++++++++OOOOOO+++++++++OOOOOOO++++OOOOOO+++++++++++",
"    ...... . ....  . ... .. . .. ... .. .... ...                 O+++++++++++++++++++++++O   .XXooXXX.  O+++++++++++++++++++OOOOOO+++++++++++OOOOOO+++++++++OOOOOOOOOOOOOOOOOO++++++++++",
"   XOOOOOOOOOOOOOOOOOOOOOOOOOOOOOOOOOOOOOOOOOOOOX                o+++++++++++++++++++++++X             .O+++++++++++++++++++OOOOOO+++++++++++OOOOOO+++++++++OOOOOOOOOOOOOOOOOO++++++++++",
"  .OOOOOOOOOOOOOOOOOOOOOOOOOOOOOOOOOOOOOOOOOOOOOO.               XO+++++++++++++++++++++O.             .O+++++++++++++++++++OOOOOO+++++++++++OOOOOO++++++++OOOOOOOOOOOOOOOOOOOO+++++++++",
"   OOOOOOOOOOOOOOOOOOOOOOOOOOOOOOOOOOOOOOOOOOOOOO.               .O+++++++++++++++++++++O.             XO+++++++++++++++++++OOOOOO+++++++++++OOOOOO++++++++OOOOOOOOOOOOOOOOOOOO+++++++++",
"   OOOOOOOOOOOOOOOOOOOOOOOOOOOOOOOOOOOOOOOOOOOOOO                 O+++++++++++++++++++++X              o++++++++++++++++++++OOOOOO+++++++++++OOOOOO++++++++OOOOOO++++++++OOOOOO+++++++++",
"   .XooXoooXooooXooooooXooooooXoooXoooooXooooooX.      +          o++++++++++++++++++++O.              o++++++++++++++++++++OOOOOO+++++++++++OOOOOO+++++++OOOOOOO++++++++OOOOOOO++++++++",
"                                                                  o++++++++++++++++++++o               O++++++++++++++++++++OOOOOO+++++++++++OOOOOO+++++++OOOOOO++++++++++OOOOOO++++++++",
"   .. .   .  . .. . .      ..  . ..  ..  .  . . .  .. .  . .   .  X+++++++++++++++++++OX              .O++++++++++++++++++++OOOOOO+++++++++++OOOOOO+++++++OOOOOO++++++++++OOOOOO++++++++",
"ooooooooooX.ooooooooooXXooooooooooX.oooooooooo.XooooooooooooooooooOO++++++++++++++++++o               o+++++++++++++++++++++OOOOOO+++++++++++OOOOOO++++++OOOOOOO++++++++++OOOOOOO+++++++",
".    .  .    .     .    .    .        . . .         .       .     ..oO+++++++++++++++O.       +       O+++++++++++++++++++++++++++++++++++++++++++++++++++++++++++++++++++++++++++++++++",
"                                                                     .oO++++++++++++OX               XO+++++++++++++++++++++++++++++++++++++++++++++++++++++++++++++++++++++++++++++++++",
"                                                                       XO++++++++++Oo                o++++++++++++++++++++++++++++++++++++++++++++++++++++++++++++++++++++++++++++++++++",
"                                                                        .O++++++++Oo                .O++++++++++++++++++++++++++++++++++++++++++++++++++++++++++++++++++++++++++++++++++",
"                                                        +                XO++++++Oo.                o+++++++++++++++++++++++++++++++++++++++++++++++++++++++++++++++++++++++++++++++++++"
};
