/* XPM */
static const char *team_logo_xpm[] = {
/* columns rows colors chars-per-pixel */
"256 64 23 1 ",
"  c black",
". c #010101",
"X c #020202",
"o c gray1",
"O c #040404",
"+ c gray2",
"@ c #060606",
"# c #070707",
"$ c gray3",
"% c gray4",
"& c #0B0B0B",
"* c #0C0C0C",
"= c gray5",
"- c gray7",
"; c #131313",
": c #151515",
"> c gray9",
", c #181818",
"< c gray10",
"1 c gray13",
"2 c #222222",
"3 c #3C3C3C",
"4 c None",
/* pixels */
"4444444444444444444444444444444444444444444444444444444444444444444444444444444444444444444444444444444444444444444444444444444444444444444444444444444444444444444444444444444444444444444444444444444444444444444444444444444444444444444444444444444444444444",
"4444444444444444444444444444444444444444444444444444444444444444444444444444444444444444444444444444444444444444444444444444444444444444444444444444444444444444444444444444444444444444444444444444444444444444444444444444444444444444444444444444444444444444",
"4444444444444444444XXXXXXXXXXX4444444444444444444444444444444444444444444444444444444444444444444444444444444444444444444444444444444444444444444444444444444444444444444444444444444444444444444444444444444444444444444444444444444444444444444444444444444444",
"4444444444444444XXXXXXXXXXXXXXXXX4444444444444444444444444444444444444444444444444444444444444444444444444444444444444444444444444444444444444444444444444444444444444444444444444444444444444444444444444444444444444444444444444444444444444444444444444444444",
"44444444444444XXXXXXXXXXXXXXXXXXXXXX4444444444444444444444444444444444444444444444444444444444444444444444444444444444444444444444444444444444444444444444444444444444444444444444444444444444444444444444444444444444444444444444444444444444444444444444444444",
"444444444444XXXXXXXXXXXXXXXXXXXXXXXXX444444444444444444444444444444444444444444444444444444444444444444444444444444444444444444444444444444444444444444444444444444444444444444444444444444444444444444444444444444444444444444444444444444444444444444444444444",
"4444444444XXXXXXXXXXXXXXXXXXXXXXXXXXXXX4444444444444444444444444444444444444444444444444444444444444444444444444444444444444444444444444444444444444444444444444444444444444444444444444444444444444444444444444444444444444444444444444444444444444444444444444",
"444444444XXXXXXXXXXXXXXXXXXXXXXXXXXXXXXO444444444444444444444444444444444444444444444444444444444444444444444444444444444444444444444444444444444444444444444444444444444444444444444444444444444444444444444444444444444444444444444444444444444444444444444444",
"44444444XXXXXXXXXXXXXXXXXXXXXXXXXXXXXXXXX44444444444444444444444444444444444444444444444444444444444444444444444444444444444444444444444444444444444444444444444444444444444444444444444444444444444444444444444444444444444444444444444444444444444444444444444",
"4444444XXXXXXXXXXXXXXXXXXXXXXXXXXXXXXXXXXX4444444444444444444444444444444444444444444444444444444444444444444444444444444444444444444444444444444444444444444444444444444444444444444444444444444444444444444444444444444444444444444444444444444444444444444444",
"444444XXXXXXXXXXXXXXXXXXXXXXXXXXXXXXXXXXXXX444444444444444444444444444444444444444444444444444444444444444444444444444444444444444444444444444444444444444444444444444444444444444444444444444444444444444444444444444444444444444444444444444444444444444444444",
"44444XXXXXXXXXXXXXXXXXXXXXXXXXXXXXXXXXXXXXXX44444444444444444444444444444444444444444444444444444444444444444444444444444444444444444444444444444444444444444444444444444444444444444444444444444444444444444444444444444444444444444444444444444444444444444444",
"44444XXXXXXXXXXXXXXXXXXXXXXXXXXXXXXXXXXXXXXXX4444444444444444444444444444444444444444444444444444444444444444444444444444444444444444444444444444444444444444444444444444444444444444444444444444444444444444444444444444444444444444444444444444444444444444444",
"4444XXXXXXXXXXXXXXXXXXXXXXXXXXXXXXXXXXXXXXXXX4444XXXXXXXXXXXXXXXXXXXXXX444444444444XXXXXXXXXXXXXXXXXXXXXXXXXXXXXXXXXXXXXO44444444444444444444444444444444444X444444444444444444444444444444444444444444444444444444444444444444444444444444444444444444444444444",
"444XXXXXXXXXXXXXXXXXXXXXXXXXXXXXXXXXXXXXXXXXXX4444XXXXXXXXXXXXXXXXXXX444444444444444XXXXXXXXXXXXXXXXXXXXXXXXXXXXXXXXXXXX44444444444444444444444444444444444XX444444444444444444444444444444444444444444444444444444444444444444444444444444444444444444444444444",
"444XXXXXXXXXXXXXXXXXXXXXXXXXXXXXXXXXXXXXXXXXXX444444XXXXXXXXXXXXXXXX44444444444444444XXXXXXXXXXXXXXXXXXXXXXXXXXXXXXXXXX44444444444444444444444444444444444XXXX44444444444444444444444444444444444444444444444444444444444444444444444444444444444444444444444444",
"44XXXXXXXXXXXXXXXXXXXXXXXXXXXXXXXXXXXXXXXXXXXXX444444XXXXXXXXXXXXXX4444444444444444444XXXXXXXXXXXXXXXXXXXXXXXXXXXXXXXX444444444444444444444444444444444444XXXXX4444444444444444444444444444444444444444444444444444444444444444444444444444444444444444444444444",
"44XXXXXXXXXXXXXXXXXXXXXXXXXXXXXXXXXXXXXXXXXXXXX4444444XXXXXXXXXXXX444444444444444444444XXXXXXXXXXXXXXXXXXXXXXXXXXXXXX444444444444444444444444444444444444XXXXXX4444444444444444444444444444444444444444444444444444444444444444444444444444444444444444444444444",
"44XXXXXXXXXXXXXXXXXXXXXXXXXXXXXXXXXXXXXXXXXXXXXX44444444XXXXXXXX444444444444444444444444XXXXXXXOXXXXXXXXXXOXXXXOXXXX4444444444444444444444444444444444444XXXXXXX444444444444444444444444444444444444444444444444444444444444444444444444444444444444444444444444",
"4XXXXXXXXXXXXXXXXXXXXXXXXXXXXXXXXXXXXXXXXXXXXXXX444444444XXXXXX44444444444444444444444444444444444XXXXXXX44444444444444444444444444444444444444444444444XXXXXXXX444444444444444444444444444444444444444444444444444444444444444444444444444444444444444444444444",
"4XXXXXXXXXXXXXXXXXXXXXXXXXXXXXXXXXXXXXXXXXXXXXXX444444444XXXXXX444444444444444444444444444444444444XXXXXX44444444444444444444444444444444444444444444444XXXXXXXXX44444444444444444444444444444444444444444444444444444444444444444444444444444444444444444444444",
"4XXXXXXXXXXXXXXXXXXXXXXXXXXXXXXXXXXXXXXXXXXXXXXX444444444XXXXXO444444444444444444444444444444444444XXXXXX4444444444444444444444444444444444444444444444XXXXXXXXXX44444444444444444444444444444444444444444444444444444444444444444444444444444444444444444444444",
"4XXXXXXXXXXXXXXXXXXXXXXXXXXXXXXXXXXXXXXXXXXXXXXX444444444XXXXXO444444444444444444444444444444444444XXXXXX444444444444444444444444444444444444444444444XXXXXXXXXXXX4444444444444444444444444444444444444444444444444444444444444444444444444444444444444444444444",
"4XXXXXXXXXXXXXXXXXXXXXXXXXXXXXXXXXXXXXXXXXXXXXXXX44444444OXXXXO444444444444444444444444444444444444XXXXXX444444444444444444444444444444444444444444444XXXXXXXXXXXXX444444444444444444444444444444444444444444444444444444444444444444444444444444444444444444444",
"4XXXX4XXXXXXXXXXXXXXXXXXXXXXXXXXXXXXXXXXXXXXXXXXX44444444OXXXXX444444444444444444444444444444444444XXXXXX44444444444444444444444444444444444444444444XXXXXXXXXXXXXX444444444444444444444444444444444444444444444444444444444444444444444444444444444444444444444",
"4XXXXX4XXXXXXXXXXXXXXXXXXXXXXXXXXXXXXXXXXX4XXXXXX44444444OXXXXO444444444444444444444444444444444444XXXXXX44444444444444444444444444444444444444444444XXXXXXXXXXXXXXX44444444444444444444444444444444444444444444444444444444444444444444444444444444444444444444",
"4XXXXXX44XXXXXXXXXXXXXXXXXXXXXXXXXXXXXXXX4XXXXXXX44444444OXXXXO444444444444444444444444444444444444XXXXXX4444444444444444444444444444444444444444444XXXXXXXXXXXXXXXX44444444444444444444444444444444444444444444444444444444444444444444444444444444444444444444",
"4XXXXXXXX44XXXXXXXXXXXXXXXXXXXXXXXXXXXX44XXXXXXXX44444444OXXXXO444444444444444444444444444444444444XXXXXX4444444444444444444444444444444444444444444XXXXXXX44XXXXXXXX4444444444444444444444444444444444444444444444444444444444444444444444444444444444444444444",
"4XXXXXXXXX444XXXXXXXXXXXXXXXXXXXXXXXX44XXXXXXXXX444444444XXXXXX444444444444444444444444444444444444XXXXXX444444444444444444444444444444444444444444XXXXXXXX444XXXXXXX4444444444444444444444444444444444444444444444444444444444444444444444444444444444444444444",
"4XXXXXXXXXXX444XXXXXXXXXXXXXXXXXXX444XXXXXXXXXXX444444444XXXXXO444444444444444444444444444444444444XXXXXX44444444444444444444444444444444444444444XXXXXXXX4444XXXXXXXX444444444444444444444444444444444444444444444444444444444444444444444444444444444444444444",
"4XXXXXXXXXXXXX4444XXXXXXXXXXXXX44444XXXXXXXXXXXX444444444OXXXXO444444444444444444444444444444444444XXXXXX44444444444444444444444444444444444444444XXXXXXXX44444XXXXXXXX44444444444444444444444444444444444444444444444444444444444444444444444444444444444444444",
"4XXXXXXXXXXXXXXX444444XXXXX444444XXXXXXXXXXXXXXX444444444OXXXXO444444444444444444444444444444444444XXXXXX4444444444444444444444444444444444444444XXXXXXXX444444XXXXXXXX44444444444444444444444444444444444444444444444444444444444444444444444444444444444444444",
"4XXXXXXXXXXXXXXXXXX444444444444XXXXXXXXXXXXXXXXX444444444OXXXXX444444444444444444444444444444444444XXXXXX4444444444444444444444444444444444444444XXXXXXX44444444XXXXXXXX4444444444444444444444444444444444444444444444444444444444444444444444444444444444444444",
"44XXXXXXXXXXXXXXXXXXXX44444XXXXXXXXXXXXXXXXXXXX4444444444OXXXXO444444444444444444444444444444444444XXXXXX444444444444444444444444444444444444444XXXXXXXX44444444XXXXXXXX4444444444444444444444444444444444444444444444444444444444444444444444444444444444444444",
"44XXXXXXXXXXXXXXXXXXXXXX44XXXXXXXXXXXXXXXXXXXXX4444444444OXXXXO444444444444444444444444444444444444XXXXXX444444444444444444444444444444444444444XXXXXXX4444444444XXXXXXXX444444444444444444444444444444444444444444444444444444444444444444444444444444444444444",
"44XXXXXXXXXXXXXXXXXXXXXX44XXXXXXXXXXXXXXXXXXXXX4444444444OXXXXO444444444444444444444444444444444444XXXXXX44444444444444444444444444444444444444XXXXXXXX44444444444XXXXXXX444444444444444444444444444444444444444444444444444444444444444444444444444444444444444",
"444XXXXXXXXXXXXXXXXXXXXX44XXXXXXXXXXXXXXXXXXXX44444444444XXXXXX444444444444444444444444444444444444XXXXXX4444444444444444444444444444444444444XXXXXXXX444444444444XXXXXXXX44444444444444444444444444444444444444444444444444444444444444444444444444444444444444",
"444XXXXXXXXXXXXXXXXXXXXX44XXXXXXXXXXXXXXXXXXXX44444444444XXXXXO444444444444444444444444444444444444XXXXXX4444444444444444444444444444444444444XXXXXXXX4444444444444XXXXXXXX4444444444444444444444444444444444444444OX444444444444444444444X4444444444XX444444444",
"444XXXXXXXXXXXXXXXXXXXXX4XXXXXXXXXXXXXXXXXXXXX44444444444OXXXXO444444444444444444444444444444444444XXXXXX444444444444444444444444444444444444XXXXXXXX44444444444444XXXXXXXX4444444444444444444444444444444444444444$X44444444444444444444OX3444444444XX444444444",
"4444XXXXXXXXXXXXXXXXXXXX4XXXXXXXXXXXXXXXXXXXX444444444444OXXXXO444444444444444444444444444444444444XXXXXX444444444444444444444444444444444444XXXXXXX4444444444444444XXXXXXXX444444444444444444444444444444444444444OX444444444444444444444X4444444444XX444444444",
"4444XXXXXXXXXXXXXXXXXXXX4XXXXXXXXXXXXXXXXXXXX444444444444XXXXXX444444444444444444444444444444444444XXXXXX44444444444444444444444444444444444XXXXXXXX4444444444444444XXXXXXXX444444444444444444444444444444444444444XX44444444444444444444444444444444X$444444444",
"44444XXXXXXXXXXXXXXXXXXX4XXXXXXXXXXXXXXXXXXX4444444444444OXXXXO444444444444444444444444444444444444XXXXXX44444444444444444444444444444444444XXXXXXX444444444444444444XXXXXXXX44444444444444444444OX44OOO4444444OOX4XX444XX4OO4444OOO444444X44444OOOX4X,4444XXO44",
"44444XXXXXXXXXXXXXXXXXXX4XXXXXXXXXXXXXXXXXXX4444444444444XXXXXX444444444444444444444444444444444444XXXXXX4444444444444444444444444444444444XXXXXXXX4444444444444444444XXXXXXX44444444444444444444OXXXXXXX4444XXXXXXXX444XXXXX44XXXXXXX4444X4444XXXXXXX,444XXXXX4",
"444444XXXXXXXXXXXXXXXXXX4XXXXXXXXXXXXXXXXXX44444444444444XXXXXX444444444444444444444444444444444444XXXXXX444444444444444444444444444444444XXXXXXXX44444444444444444444XXXXXXXX4444444444444444444OXX444XXX444XX4444XX444XXX444XX44444XX444X444XX4444XX,44XX44444",
"444444XXXXXXXXXXXXXXXXX444XXXXXXXXXXXXXXXXX44444444444444XXXXXX444444444444444444444444444444444444XXXXXX444444444444444444444444444444444XXXXXXXX444444444444444444444XXXXXXXX444444444444444444OX44444XX44XX44444OX444XX4444XX44444XX444X444XX44444X,44XX44444",
"4444444XXXXXXXXXXXXXXX4XXX4XXXXXXXXXXXXXXX4444444444444XXXXXXXXXX44444444444444444444444444444444XXXXXXXXX444444444444444444444444444444XXXXXXXXX4444444444444444444444XXXXXXXXXX4444444444444444OX44444XX44XX44444OX444XX4444X$44444XX444X444X444444X-444XXX444",
"4444444XXXXXXXXXXXXXX4XXXXX4XXXXXXXXXXXXX4444444444444XXXXXXXXXXXX444444444444444444444444444444XXXXXXXXXXXX44444444444444444444444444XXXXXXXXXX444444444444444444444444XXXXXXXXXXX44444444444444OX44444XX44XX44444OX444XX4444XX44444XX444X444X444444XX4444XXXX4",
"44444444XXXXXXXXXXXX4XXXXXXX4XXXXXXXXXXXX444444444444XXXXXXXXXXXXXX4444444444444444444444444444XXXXXXXXXXXXXX4444444444444444444444XXXXXXXXXXXXX444444444444444444444444XXXXXXXXXXXXX444444444444$X44444XX44XX44444XX444XX4444XX44444XX444X444XX44444X$444444XX4",
"444444444XXXXXXXXXX4XXXXXXXXXXXXXXXXXXXX444444444444XXXXXXXXXXXXXXXX44444444444444444444444444XXXXXXXXXXXXXXXX4444444444444444444XXXXXXXXXXXXXX44444444444444444444444444XXXXXXXXXXXXXXX444444444$X44444X=44XX44444XX444XX4444XX44444XX444X444XX44444XO4444444X4",
"444444444XXXXXXXXXXXXXXXXXXXXXX4XXXXXXX444444444444XXXXXXXXXXXXXXXXXXX44444444444444444444444XXXXXXXXXXXXXXXXXX4444444444444444XXXXXXXXXXXXXXXX444444444444444444444444444XXXXXXXXXXXXXXXX4444444OX44444XO444XX444XXX444XX44444XX444XX4444X444XXX444XXX444444XX4",
"4444444444XXXXXXXXXXXXXXXXXXXXXX4XXXXXX4444444444XXXXXXXXXXXXXXXXXXXXXX44444444444444444444XXXXXXXXXXXXXXXXXXXXXO444444444444XXXXXXXXXXXXXXXXX4444444444444444444444444444XXXXXXXXXXXXXXXXXX44444OX44444OX4444XXXXX4X444XX44444XXXXXX44444X4444XXXXX4XX44XXXXXX4",
"4444444444XXXX<>XXXXXXXXXXXXXXXXX41XXX44444444444444444444444444444444444444444444444444444444444444444444444444444444444444444444444444444444444444444444444444444444444444444444444444444444444444444444444444444444444444444444444444444444444444444444444444",
"44444444444XXXOXXXXXXXXXXXXXXXXXXXOOX444444444444444444444444444444444444444444444444444444444444444444444444444444444444444444444444444444444444444444444444444444444444444444444444444444444444444444444444444444444444444444444444444444444444444444444444444",
"444444444444XXXXXXXXXXXXXXXXXXXXXXXXX444444444444444444444444444444444444444444444444444444444444444444444444444444444444444444444444444444444444444444444444444444444444444444444444444444444444444444444444444444444444444444444444444444444444444444444444444",
"4444444444444XXXXXXXXXXXXXXXXXXXXXXX4444444444444444444444444444444444444444444444444444444444444444444444444444444444444444444444444444444444444444444444444444444444444444444444444444444444444444444444444444444444444444444444444444444444444444444444444444",
"4444444444444XXXXXXXXXXXXXXXXXXXXXX44444444444444444444444444444444444444444444444444444444444444444444444444444444444444444444444444444444444444444444444444444444444444444444444444444444444444444444444444444444444444444444444444444444444444444444444444444",
"44444444444444XXXXXXXXXXXXXXXXXXXX444444444444444444444444444444444444444444444444444444444444444444444444444444444444444444444444444444444444444444444444444444444444444444444444444444444444444444444444444444444444444444444444444444444444444444444444444444",
"444444444444444XXXXXXXXXXXXXXXXXXX444444444444444444444444444444444444444444444444444444444444444444444444444444444444444444444444444444444444444444444444444444444444444444444444444444444444444444444444444444444444444444444444444444444444444444444444444444",
"4444444444444444XXXXXXXXXXXXXXXXX4444444444444444444444444444444444444444444444444444444444444444444444444444444444444444444444444444444444444444444444444444444444444444444444444444444444444444444444444444444444444444444444444444444444444444444444444444444",
"44444444444444444XXXXXXXXXXXXXXX44444444444444444444444444444444444444444444444444444444444444444444444444444444444444444444444444444444444444444444444444444444444444444444444444444444444444444444444444444444444444444444444444444444444444444444444444444444",
"444444444444444444XXXXXXXXXXXX4444444444444444444444444444444444444444444444444444444444444444444444444444444444444444444444444444444444444444444444444444444444444444444444444444444444444444444444444444444444444444444444444444444444444444444444444444444444",
"4444444444444444444XXXXXXXXXX44444444444444444444444444444444444444444444444444444444444444444444444444444444444444444444444444444444444444444444444444444444444444444444444444444444444444444444444444444444444444444444444444444444444444444444444444444444444",
"444444444444444444444>$OOO-4444444444444444444444444444444444444444444444444444444444444444444444444444444444444444444444444444444444444444444444444444444444444444444444444444444444444444444444444444444444444444444444444444444444444444444444444444444444444",
"4444444444444444444444444444444444444444444444444444444444444444444444444444444444444444444444444444444444444444444444444444444444444444444444444444444444444444444444444444444444444444444444444444444444444444444444444444444444444444444444444444444444444444"
};
